<svg width="15" height="15" viewBox="0 0 15 15" fill="none" xmlns="http://www.w3.org/2000/svg">
<path d="M13.8574 2.22656C13.6734 2.22656 10.6171 2.22656 10.4297 2.22656V0.585938C10.4297 0.262299 10.1674 0 9.84375 0H5.15625C4.83261 0 4.57031 0.262299 4.57031 0.585938V2.22656C4.38286 2.22656 1.32706 2.22656 1.14258 2.22656C0.818939 2.22656 0.556641 2.48886 0.556641 2.8125C0.556641 3.13614 0.818939 3.39844 1.14258 3.39844H2.22656V14.4141C2.22656 14.7377 2.48886 15 2.8125 15H12.1875C12.5111 15 12.7734 14.7377 12.7734 14.4141V3.39844H13.8574C14.1811 3.39844 14.4434 3.13614 14.4434 2.8125C14.4434 2.48886 14.1811 2.22656 13.8574 2.22656ZM5.74219 1.17188H9.25781V2.22656H5.74219V1.17188ZM11.6016 13.8281H3.39844V3.39844H11.6016V13.8281ZM6.52348 5.03906V12.1875C6.52348 12.5111 6.26118 12.7734 5.93754 12.7734C5.6139 12.7734 5.3516 12.5111 5.3516 12.1875V5.03906C5.3516 4.71542 5.6139 4.45312 5.93754 4.45312C6.26118 4.45312 6.52348 4.71542 6.52348 5.03906ZM9.6484 5.03906V12.1875C9.6484 12.5111 9.3861 12.7734 9.06246 12.7734C8.73882 12.7734 8.47652 12.5111 8.47652 12.1875V5.03906C8.47652 4.71542 8.73882 4.45312 9.06246 4.45312C9.3861 4.45312 9.6484 4.71542 9.6484 5.03906Z" fill="#757575"/>
</svg>
