<svg width="28" height="28" viewBox="0 0 28 28" fill="none" xmlns="http://www.w3.org/2000/svg">
<path d="M12.6819 12.8579C14.2243 12.8579 15.4793 11.6031 15.4793 10.0608C15.4793 8.51819 14.2243 7.26337 12.6819 7.26337C11.1396 7.26337 9.88477 8.51819 9.88477 10.0608C9.88477 11.6031 11.1396 12.8579 12.6819 12.8579V12.8579ZM12.6819 8.90399C13.3198 8.90399 13.8387 9.42288 13.8387 10.0608C13.8387 10.6984 13.3198 11.2173 12.6819 11.2173C12.0443 11.2173 11.5254 10.6984 11.5254 10.0608C11.5254 9.42288 12.0443 8.90399 12.6819 8.90399Z" fill="white"/>
<path d="M26.9776 2.02344H1.0224C0.458649 2.02344 0 2.48209 0 3.04584V25.0153C0 25.579 0.458649 26.0377 1.0224 26.0377H26.9776C27.5414 26.0377 28 25.579 28 25.0153V3.04584C28 2.48209 27.5414 2.02344 26.9776 2.02344ZM26.3594 3.66406V16.6472L21.1995 11.4872C20.8631 11.1513 20.316 11.1516 19.9797 11.4878L12.6822 18.7854L8.02069 14.1241C7.8577 13.9609 7.64087 13.871 7.41016 13.871C7.17966 13.871 6.96304 13.9607 6.80005 14.1237L1.64062 19.2831V3.66406H26.3594ZM1.64062 24.397V21.6033L7.41016 15.8337L12.0714 20.495C12.2346 20.6582 12.4514 20.7484 12.6822 20.7484C12.9124 20.7484 13.1293 20.6584 13.2921 20.4954L20.5898 13.1976L26.3596 18.9674V24.397H1.64062Z" fill="white"/>
</svg>
