<svg width="17" height="17" viewBox="0 0 17 17" fill="none" xmlns="http://www.w3.org/2000/svg">
<path d="M13.0903 3.60659L12.2701 4.66021C14.0378 6.03583 14.9199 8.26302 14.5721 10.4731C14.0456 13.8211 10.8932 16.1175 7.54516 15.5897C4.19736 15.0623 1.90186 11.9097 2.42812 8.56186C2.68312 6.93992 3.55473 5.51469 4.88205 4.54829C6.04071 3.70494 7.42611 3.29929 8.83755 3.37962L7.68334 4.59056L8.5396 5.40743L10.3616 3.49466L10.362 3.49533L11.1782 2.63818L10.3226 1.82198L10.3222 1.82221L8.41009 0L7.59322 0.857143L8.83933 2.04406C7.14529 1.96395 5.48708 2.45639 4.09612 3.46885C2.48063 4.64508 1.41988 6.38006 1.10925 8.35447C0.468614 12.4295 3.26234 16.2668 7.33733 16.9085C7.72963 16.9702 8.11926 17 8.50444 17C12.1213 16.9998 15.3115 14.3632 15.891 10.6805C16.3144 7.99088 15.2412 5.28037 13.0903 3.60659Z" fill="#757575"/>
</svg>
