<svg width="27" height="27" viewBox="0 0 27 27" fill="none" xmlns="http://www.w3.org/2000/svg">
<path d="M12.5258 22.4073H11.4124V4.5927H18.0929V5.70623C18.0929 6.32192 18.5905 6.81957 19.2062 6.81957C19.8219 6.81957 20.3195 6.32192 20.3195 5.70623V3.47936C20.3195 2.86367 19.8219 2.36603 19.2062 2.36603H1.11333C0.497647 2.36603 0 2.86367 0 3.47936V5.70623C0 6.32192 0.497647 6.81957 1.11333 6.81957C1.72902 6.81957 2.22687 6.32192 2.22687 5.70623V4.5927H9.18557V22.4073H8.07223C7.45655 22.4073 6.95869 22.9049 6.95869 23.5206C6.95869 24.1363 7.45655 24.6339 8.07223 24.6339H12.5258C13.1415 24.6339 13.6391 24.1363 13.6391 23.5206C13.6391 22.9049 13.1415 22.4073 12.5258 22.4073V22.4073Z" fill="white"/>
<path d="M25.8866 12.3867H16.9793C16.3636 12.3867 15.866 12.8843 15.866 13.5V15.4484C15.866 16.0641 16.3636 16.5619 16.9793 16.5619C17.595 16.5619 18.0929 16.0641 18.0929 15.4484V14.6133H20.3195V22.4073H19.763C19.1473 22.4073 18.6494 22.9049 18.6494 23.5206C18.6494 24.1363 19.1473 24.6339 19.763 24.6339H23.1032C23.7188 24.6339 24.2165 24.1363 24.2165 23.5206C24.2165 22.9049 23.7188 22.4073 23.1032 22.4073H22.5464V14.6133H24.7733V15.1701C24.7733 15.7858 25.2709 16.2834 25.8866 16.2834C26.5023 16.2834 26.9999 15.7858 26.9999 15.1701V13.5C26.9999 12.8843 26.5023 12.3867 25.8866 12.3867V12.3867Z" fill="white"/>
</svg>
